<?xml version="1.0" encoding="UTF-8" standalone="no"?>
<!DOCTYPE svg PUBLIC "-//W3C//DTD SVG 1.1//EN"
 "http://www.w3.org/Graphics/SVG/1.1/DTD/svg11.dtd">
<!-- Generated by graphviz version 2.38.0 (20140413.2041)
 -->
<!-- Title: G Pages: 1 -->
<svg width="303pt" height="350pt"
 viewBox="0.00 0.00 303.33 350.00" xmlns="http://www.w3.org/2000/svg" xmlns:xlink="http://www.w3.org/1999/xlink">
<g id="graph0" class="graph" transform="scale(1 1) rotate(0) translate(4 346)">
<title>G</title>
<polygon fill="white" stroke="none" points="-4,4 -4,-346 299.334,-346 299.334,4 -4,4"/>
<!-- from_nhit -->
<g id="node1" class="node"><title>from_nhit</title>
<g id="a_node1"><a xlink:href="/transfer_college?college=nhit" xlink:title="Concord Community College">
<ellipse fill="lightyellow" stroke="lightgreen" cx="155.596" cy="-324" rx="118.079" ry="18"/>
<text text-anchor="middle" x="155.596" y="-320.3" font-family="Times New Roman,serif" font-size="14.00">Concord Community College</text>
</a>
</g>
</g>
<!-- nhit_computer_science -->
<g id="node5" class="node"><title>nhit_computer_science</title>
<ellipse fill="none" stroke="black" cx="155.596" cy="-251" rx="139.976" ry="18"/>
<text text-anchor="middle" x="155.596" y="-247.3" font-family="Times New Roman,serif" font-size="14.00"> Concord NHTI Computer Science</text>
</g>
<!-- from_nhit&#45;&gt;nhit_computer_science -->
<g id="edge1" class="edge"><title>from_nhit&#45;&gt;nhit_computer_science</title>
<path fill="none" stroke="black" d="M155.596,-305.813C155.596,-297.789 155.596,-288.047 155.596,-279.069"/>
<polygon fill="black" stroke="black" points="159.096,-279.029 155.596,-269.029 152.096,-279.029 159.096,-279.029"/>
</g>
<!-- transfer -->
<g id="node2" class="node"><title>transfer</title>
<g id="a_node2"><a xlink:href="https://www.nhtransfer.org/sites/nhtransfer.org/files/media/nhtransferapplication.pdf" xlink:title="Transfer">
<ellipse fill="lightyellow" stroke="lightgreen" cx="41.5963" cy="-105" rx="41.6928" ry="18"/>
<text text-anchor="middle" x="41.5963" y="-101.3" font-family="Times New Roman,serif" font-size="14.00">Transfer</text>
</a>
</g>
</g>
<!-- nhit_apply_to_it -->
<g id="node6" class="node"><title>nhit_apply_to_it</title>
<g id="a_node6"><a xlink:href="/index.html" xlink:title="Apply">
<ellipse fill="lightyellow" stroke="lightgreen" cx="41.5963" cy="-18" rx="33.2948" ry="18"/>
<text text-anchor="middle" x="41.5963" y="-14.3" font-family="Times New Roman,serif" font-size="14.00">Apply</text>
</a>
</g>
</g>
<!-- transfer&#45;&gt;nhit_apply_to_it -->
<g id="edge5" class="edge"><title>transfer&#45;&gt;nhit_apply_to_it</title>
<g id="a_edge5"><a xlink:href="/index.html" xlink:title="Apply">
<path fill="none" stroke="lightgreen" d="M41.5963,-86.799C41.5963,-75.1626 41.5963,-59.5479 41.5963,-46.2368"/>
<polygon fill="lightyellow" stroke="lightgreen" points="45.0964,-46.1754 41.5963,-36.1754 38.0964,-46.1755 45.0964,-46.1754"/>
</a>
</g>
<g id="a_edge5&#45;label"><a xlink:href="/index.html" xlink:title="Apply">
<text text-anchor="middle" x="59.0963" y="-57.8" font-family="Times New Roman,serif" font-size="14.00">Apply</text>
</a>
</g>
</g>
<!-- nhit_compare_tuition_cost -->
<g id="node3" class="node"><title>nhit_compare_tuition_cost</title>
<g id="a_node3"><a xlink:href="https://manchester.unh.edu/costs" xlink:title="Compare Tuition Cost">
<ellipse fill="lightyellow" stroke="lightgreen" cx="194.596" cy="-105" rx="92.8835" ry="18"/>
<text text-anchor="middle" x="194.596" y="-101.3" font-family="Times New Roman,serif" font-size="14.00">Compare Tuition Cost</text>
</a>
</g>
</g>
<!-- nhit_list_of_unh_programs -->
<g id="node4" class="node"><title>nhit_list_of_unh_programs</title>
<g id="a_node4"><a xlink:href="https://manchester.unh.edu/academics/degree-programs/information-technology" xlink:title="UNH MS IT">
<ellipse fill="lightyellow" stroke="lightgreen" cx="155.596" cy="-178" rx="56.59" ry="18"/>
<text text-anchor="middle" x="155.596" y="-174.3" font-family="Times New Roman,serif" font-size="14.00">UNH MS IT</text>
</a>
</g>
</g>
<!-- nhit_list_of_unh_programs&#45;&gt;transfer -->
<g id="edge3" class="edge"><title>nhit_list_of_unh_programs&#45;&gt;transfer</title>
<path fill="none" stroke="black" d="M131.14,-161.769C114.161,-151.194 91.3873,-137.01 73.0563,-125.594"/>
<polygon fill="black" stroke="black" points="74.7979,-122.555 64.4592,-120.239 71.0973,-128.497 74.7979,-122.555"/>
</g>
<!-- nhit_list_of_unh_programs&#45;&gt;nhit_compare_tuition_cost -->
<g id="edge4" class="edge"><title>nhit_list_of_unh_programs&#45;&gt;nhit_compare_tuition_cost</title>
<path fill="none" stroke="black" d="M164.839,-160.174C169.434,-151.809 175.091,-141.509 180.235,-132.145"/>
<polygon fill="black" stroke="black" points="183.402,-133.648 185.149,-123.198 177.267,-130.278 183.402,-133.648"/>
</g>
<!-- nhit_computer_science&#45;&gt;nhit_list_of_unh_programs -->
<g id="edge2" class="edge"><title>nhit_computer_science&#45;&gt;nhit_list_of_unh_programs</title>
<path fill="none" stroke="black" d="M155.596,-232.813C155.596,-224.789 155.596,-215.047 155.596,-206.069"/>
<polygon fill="black" stroke="black" points="159.096,-206.029 155.596,-196.029 152.096,-206.029 159.096,-206.029"/>
</g>
</g>
</svg>
