<?xml version="1.0" encoding="UTF-8" standalone="no"?>
<!DOCTYPE svg PUBLIC "-//W3C//DTD SVG 1.1//EN"
 "http://www.w3.org/Graphics/SVG/1.1/DTD/svg11.dtd">
<!-- Generated by graphviz version 2.38.0 (20140413.2041)
 -->
<!-- Title: G Pages: 1 -->
<svg width="660pt" height="332pt"
 viewBox="0.00 0.00 660.18 332.00" xmlns="http://www.w3.org/2000/svg" xmlns:xlink="http://www.w3.org/1999/xlink">
<g id="graph0" class="graph" transform="scale(1 1) rotate(0) translate(4 328)">
<title>G</title>
<polygon fill="white" stroke="none" points="-4,4 -4,-328 656.18,-328 656.18,4 -4,4"/>
<!-- transfer -->
<g id="node1" class="node"><title>transfer</title>
<g id="a_node1"><a xlink:href="https://www.nhtransfer.org/sites/nhtransfer.org/files/media/nhtransferapplication.pdf" xlink:title="Transfer">
<ellipse fill="lightyellow" stroke="lightgreen" cx="260.29" cy="-90" rx="41.6928" ry="18"/>
<text text-anchor="middle" x="260.29" y="-86.3" font-family="Times New Roman,serif" font-size="14.00">Transfer</text>
</a>
</g>
</g>
<!-- apply -->
<g id="node5" class="node"><title>apply</title>
<g id="a_node5"><a xlink:href="/index.html" xlink:title="Apply">
<ellipse fill="lightyellow" stroke="lightgreen" cx="260.29" cy="-18" rx="33.2948" ry="18"/>
<text text-anchor="middle" x="260.29" y="-14.3" font-family="Times New Roman,serif" font-size="14.00">Apply</text>
</a>
</g>
</g>
<!-- transfer&#45;&gt;apply -->
<g id="edge9" class="edge"><title>transfer&#45;&gt;apply</title>
<path fill="none" stroke="black" d="M260.29,-71.6966C260.29,-63.9827 260.29,-54.7125 260.29,-46.1124"/>
<polygon fill="black" stroke="black" points="263.79,-46.1043 260.29,-36.1043 256.79,-46.1044 263.79,-46.1043"/>
</g>
<!-- compare_tuition_cost -->
<g id="node2" class="node"><title>compare_tuition_cost</title>
<g id="a_node2"><a xlink:href="https://manchester.unh.edu/costs" xlink:title="Compare Tuition Cost">
<ellipse fill="lightyellow" stroke="lightgreen" cx="413.29" cy="-90" rx="92.8835" ry="18"/>
<text text-anchor="middle" x="413.29" y="-86.3" font-family="Times New Roman,serif" font-size="14.00">Compare Tuition Cost</text>
</a>
</g>
</g>
<!-- list_of_unh_programs -->
<g id="node3" class="node"><title>list_of_unh_programs</title>
<g id="a_node3"><a xlink:href="https://manchester.unh.edu/academics/degree-programs/information-technology" xlink:title="UNH IT Program">
<ellipse fill="lightyellow" stroke="lightgreen" cx="336.29" cy="-162" rx="74.9875" ry="18"/>
<text text-anchor="middle" x="336.29" y="-158.3" font-family="Times New Roman,serif" font-size="14.00">UNH IT Program</text>
</a>
</g>
</g>
<!-- list_of_unh_programs&#45;&gt;transfer -->
<g id="edge7" class="edge"><title>list_of_unh_programs&#45;&gt;transfer</title>
<path fill="none" stroke="black" d="M318.279,-144.411C308.247,-135.172 295.618,-123.539 284.708,-113.491"/>
<polygon fill="black" stroke="black" points="286.856,-110.711 277.13,-106.511 282.114,-115.86 286.856,-110.711"/>
</g>
<!-- list_of_unh_programs&#45;&gt;compare_tuition_cost -->
<g id="edge8" class="edge"><title>list_of_unh_programs&#45;&gt;compare_tuition_cost</title>
<path fill="none" stroke="black" d="M354.537,-144.411C364.343,-135.497 376.599,-124.355 387.376,-114.558"/>
<polygon fill="black" stroke="black" points="389.861,-117.029 394.906,-107.713 385.152,-111.849 389.861,-117.029"/>
</g>
<!-- nashua -->
<g id="node4" class="node"><title>nashua</title>
<g id="a_node4"><a xlink:href="/transfer_college?college=nashua" xlink:title="Nashua Community College">
<ellipse fill="lightyellow" stroke="lightgreen" cx="336.29" cy="-306" rx="112.38" ry="18"/>
<text text-anchor="middle" x="336.29" y="-302.3" font-family="Times New Roman,serif" font-size="14.00">Nashua Community College</text>
</a>
</g>
</g>
<!-- nashua_software_development -->
<g id="node6" class="node"><title>nashua_software_development</title>
<g id="a_node6"><a xlink:href="https://manchester.unh.edu/sites/default/files/media/ncc_software_dev_cis_pathways_0.pdf" xlink:title="Nashua Software Develoment">
<ellipse fill="lightyellow" stroke="lightgreen" cx="118.29" cy="-234" rx="118.079" ry="18"/>
<text text-anchor="middle" x="118.29" y="-230.3" font-family="Times New Roman,serif" font-size="14.00">Nashua Software Develoment</text>
</a>
</g>
</g>
<!-- nashua&#45;&gt;nashua_software_development -->
<g id="edge1" class="edge"><title>nashua&#45;&gt;nashua_software_development</title>
<path fill="none" stroke="black" d="M288.448,-289.638C255.339,-279.007 211.099,-264.801 176.027,-253.54"/>
<polygon fill="black" stroke="black" points="176.986,-250.172 166.395,-250.447 174.846,-256.837 176.986,-250.172"/>
</g>
<!-- nashua_networking -->
<g id="node7" class="node"><title>nashua_networking</title>
<g id="a_node7"><a xlink:href="https://manchester.unh.edu/sites/default/files/media/ncc_comp_net_cis_pathways_0.pdf" xlink:title="Nashua Networking">
<ellipse fill="lightyellow" stroke="lightgreen" cx="336.29" cy="-234" rx="81.7856" ry="18"/>
<text text-anchor="middle" x="336.29" y="-230.3" font-family="Times New Roman,serif" font-size="14.00">Nashua Networking</text>
</a>
</g>
</g>
<!-- nashua&#45;&gt;nashua_networking -->
<g id="edge2" class="edge"><title>nashua&#45;&gt;nashua_networking</title>
<path fill="none" stroke="black" d="M336.29,-287.697C336.29,-279.983 336.29,-270.712 336.29,-262.112"/>
<polygon fill="black" stroke="black" points="339.79,-262.104 336.29,-252.104 332.79,-262.104 339.79,-262.104"/>
</g>
<!-- nashua_web -->
<g id="node8" class="node"><title>nashua_web</title>
<g id="a_node8"><a xlink:href="https://manchester.unh.edu/sites/default/files/media/ncc_web_app_cis_pathways_0.pdf" xlink:title="Nashua Web Development">
<ellipse fill="lightyellow" stroke="lightgreen" cx="544.29" cy="-234" rx="107.781" ry="18"/>
<text text-anchor="middle" x="544.29" y="-230.3" font-family="Times New Roman,serif" font-size="14.00">Nashua Web Development</text>
</a>
</g>
</g>
<!-- nashua&#45;&gt;nashua_web -->
<g id="edge3" class="edge"><title>nashua&#45;&gt;nashua_web</title>
<path fill="none" stroke="black" d="M382.193,-289.552C413.662,-278.961 455.579,-264.854 488.904,-253.639"/>
<polygon fill="black" stroke="black" points="490.141,-256.916 498.503,-250.409 487.909,-250.281 490.141,-256.916"/>
</g>
<!-- nashua_software_development&#45;&gt;list_of_unh_programs -->
<g id="edge4" class="edge"><title>nashua_software_development&#45;&gt;list_of_unh_programs</title>
<path fill="none" stroke="black" d="M166.4,-217.552C201.013,-206.437 247.687,-191.45 283.356,-179.997"/>
<polygon fill="black" stroke="black" points="284.654,-183.256 293.105,-176.867 282.513,-176.592 284.654,-183.256"/>
</g>
<!-- nashua_networking&#45;&gt;list_of_unh_programs -->
<g id="edge5" class="edge"><title>nashua_networking&#45;&gt;list_of_unh_programs</title>
<path fill="none" stroke="black" d="M336.29,-215.697C336.29,-207.983 336.29,-198.712 336.29,-190.112"/>
<polygon fill="black" stroke="black" points="339.79,-190.104 336.29,-180.104 332.79,-190.104 339.79,-190.104"/>
</g>
<!-- nashua_web&#45;&gt;list_of_unh_programs -->
<g id="edge6" class="edge"><title>nashua_web&#45;&gt;list_of_unh_programs</title>
<path fill="none" stroke="black" d="M498.643,-217.638C465.881,-206.613 421.697,-191.743 387.694,-180.3"/>
<polygon fill="black" stroke="black" points="388.537,-176.89 377.943,-177.018 386.304,-183.525 388.537,-176.89"/>
</g>
</g>
</svg>
