<?xml version="1.0" encoding="UTF-8" standalone="no"?>
<!DOCTYPE svg PUBLIC "-//W3C//DTD SVG 1.1//EN"
 "http://www.w3.org/Graphics/SVG/1.1/DTD/svg11.dtd">
<!-- Generated by graphviz version 2.38.0 (20140413.2041)
 -->
<!-- Title: G Pages: 1 -->
<svg width="686pt" height="332pt"
 viewBox="0.00 0.00 686.18 332.00" xmlns="http://www.w3.org/2000/svg" xmlns:xlink="http://www.w3.org/1999/xlink">
<g id="graph0" class="graph" transform="scale(1 1) rotate(0) translate(4 328)">
<title>G</title>
<polygon fill="white" stroke="none" points="-4,4 -4,-328 682.18,-328 682.18,4 -4,4"/>
<!-- transfer -->
<g id="node1" class="node"><title>transfer</title>
<g id="a_node1"><a xlink:href="https://www.nhtransfer.org/sites/nhtransfer.org/files/media/nhtransferapplication.pdf" xlink:title="Transfer">
<ellipse fill="lightyellow" stroke="lightgreen" cx="273.29" cy="-90" rx="41.6928" ry="18"/>
<text text-anchor="middle" x="273.29" y="-86.3" font-family="Times New Roman,serif" font-size="14.00">Transfer</text>
</a>
</g>
</g>
<!-- apply -->
<g id="node5" class="node"><title>apply</title>
<g id="a_node5"><a xlink:href="/index.html" xlink:title="Apply">
<ellipse fill="lightyellow" stroke="lightgreen" cx="273.29" cy="-18" rx="33.2948" ry="18"/>
<text text-anchor="middle" x="273.29" y="-14.3" font-family="Times New Roman,serif" font-size="14.00">Apply</text>
</a>
</g>
</g>
<!-- transfer&#45;&gt;apply -->
<g id="edge9" class="edge"><title>transfer&#45;&gt;apply</title>
<path fill="none" stroke="black" d="M273.29,-71.6966C273.29,-63.9827 273.29,-54.7125 273.29,-46.1124"/>
<polygon fill="black" stroke="black" points="276.79,-46.1043 273.29,-36.1043 269.79,-46.1044 276.79,-46.1043"/>
</g>
<!-- compare_tuition_cost -->
<g id="node2" class="node"><title>compare_tuition_cost</title>
<g id="a_node2"><a xlink:href="https://manchester.unh.edu/costs" xlink:title="Compare Tuition Cost">
<ellipse fill="lightyellow" stroke="lightgreen" cx="426.29" cy="-90" rx="92.8835" ry="18"/>
<text text-anchor="middle" x="426.29" y="-86.3" font-family="Times New Roman,serif" font-size="14.00">Compare Tuition Cost</text>
</a>
</g>
</g>
<!-- list_of_unh_programs -->
<g id="node3" class="node"><title>list_of_unh_programs</title>
<g id="a_node3"><a xlink:href="https://manchester.unh.edu/academics/degree-programs/information-technology" xlink:title="UNH IT Program">
<ellipse fill="lightyellow" stroke="lightgreen" cx="349.29" cy="-162" rx="74.9875" ry="18"/>
<text text-anchor="middle" x="349.29" y="-158.3" font-family="Times New Roman,serif" font-size="14.00">UNH IT Program</text>
</a>
</g>
</g>
<!-- list_of_unh_programs&#45;&gt;transfer -->
<g id="edge7" class="edge"><title>list_of_unh_programs&#45;&gt;transfer</title>
<path fill="none" stroke="black" d="M331.279,-144.411C321.247,-135.172 308.618,-123.539 297.708,-113.491"/>
<polygon fill="black" stroke="black" points="299.856,-110.711 290.13,-106.511 295.114,-115.86 299.856,-110.711"/>
</g>
<!-- list_of_unh_programs&#45;&gt;compare_tuition_cost -->
<g id="edge8" class="edge"><title>list_of_unh_programs&#45;&gt;compare_tuition_cost</title>
<path fill="none" stroke="black" d="M367.537,-144.411C377.343,-135.497 389.599,-124.355 400.376,-114.558"/>
<polygon fill="black" stroke="black" points="402.861,-117.029 407.906,-107.713 398.152,-111.849 402.861,-117.029"/>
</g>
<!-- nashua -->
<g id="node4" class="node"><title>nashua</title>
<g id="a_node4"><a xlink:href="/transfer_college?college=nashua" xlink:title="Nashua Community College">
<ellipse fill="lightyellow" stroke="lightgreen" cx="349.29" cy="-306" rx="112.38" ry="18"/>
<text text-anchor="middle" x="349.29" y="-302.3" font-family="Times New Roman,serif" font-size="14.00">Nashua Community College</text>
</a>
</g>
</g>
<!-- nashua_software_development -->
<g id="node6" class="node"><title>nashua_software_development</title>
<ellipse fill="none" stroke="black" cx="118.29" cy="-234" rx="118.079" ry="18"/>
<text text-anchor="middle" x="118.29" y="-230.3" font-family="Times New Roman,serif" font-size="14.00">Nashua Software Develoment</text>
</g>
<!-- nashua&#45;&gt;nashua_software_development -->
<g id="edge1" class="edge"><title>nashua&#45;&gt;nashua_software_development</title>
<path fill="none" stroke="black" d="M299.166,-289.811C263.842,-279.107 216.352,-264.716 178.898,-253.366"/>
<polygon fill="black" stroke="black" points="179.698,-249.952 169.113,-250.401 177.668,-256.651 179.698,-249.952"/>
</g>
<!-- nashua_cyber_security -->
<g id="node7" class="node"><title>nashua_cyber_security</title>
<ellipse fill="none" stroke="black" cx="349.29" cy="-234" rx="94.7833" ry="18"/>
<text text-anchor="middle" x="349.29" y="-230.3" font-family="Times New Roman,serif" font-size="14.00">Nashua Cyber Security</text>
</g>
<!-- nashua&#45;&gt;nashua_cyber_security -->
<g id="edge2" class="edge"><title>nashua&#45;&gt;nashua_cyber_security</title>
<path fill="none" stroke="black" d="M349.29,-287.697C349.29,-279.983 349.29,-270.712 349.29,-262.112"/>
<polygon fill="black" stroke="black" points="352.79,-262.104 349.29,-252.104 345.79,-262.104 352.79,-262.104"/>
</g>
<!-- nashua_web -->
<g id="node8" class="node"><title>nashua_web</title>
<ellipse fill="none" stroke="black" cx="570.29" cy="-234" rx="107.781" ry="18"/>
<text text-anchor="middle" x="570.29" y="-230.3" font-family="Times New Roman,serif" font-size="14.00">Nashua Web Development</text>
</g>
<!-- nashua&#45;&gt;nashua_web -->
<g id="edge3" class="edge"><title>nashua&#45;&gt;nashua_web</title>
<path fill="none" stroke="black" d="M397.516,-289.725C431.298,-279.024 476.611,-264.672 512.355,-253.35"/>
<polygon fill="black" stroke="black" points="513.69,-256.599 522.166,-250.243 511.576,-249.926 513.69,-256.599"/>
</g>
<!-- nashua_software_development&#45;&gt;list_of_unh_programs -->
<g id="edge4" class="edge"><title>nashua_software_development&#45;&gt;list_of_unh_programs</title>
<path fill="none" stroke="black" d="M168.983,-217.638C206.168,-206.37 256.601,-191.087 294.675,-179.55"/>
<polygon fill="black" stroke="black" points="296.012,-182.802 304.567,-176.552 293.982,-176.103 296.012,-182.802"/>
</g>
<!-- nashua_cyber_security&#45;&gt;list_of_unh_programs -->
<g id="edge5" class="edge"><title>nashua_cyber_security&#45;&gt;list_of_unh_programs</title>
<path fill="none" stroke="black" d="M349.29,-215.697C349.29,-207.983 349.29,-198.712 349.29,-190.112"/>
<polygon fill="black" stroke="black" points="352.79,-190.104 349.29,-180.104 345.79,-190.104 352.79,-190.104"/>
</g>
<!-- nashua_web&#45;&gt;list_of_unh_programs -->
<g id="edge6" class="edge"><title>nashua_web&#45;&gt;list_of_unh_programs</title>
<path fill="none" stroke="black" d="M522.336,-217.811C487.06,-206.638 439.103,-191.448 402.621,-179.892"/>
<polygon fill="black" stroke="black" points="403.245,-176.419 392.655,-176.736 401.132,-183.092 403.245,-176.419"/>
</g>
</g>
</svg>
